<svg id="my_cup_Logo" data-name="my cup, Logo" xmlns="http://www.w3.org/2000/svg" xmlns:xlink="http://www.w3.org/1999/xlink" width="159.93" height="40" viewBox="0 0 159.93 40">
  <defs>
    <clipPath id="clip-path">
      <rect id="사각형_1" data-name="사각형 1" width="159.93" height="40" fill="#0ad4b1"/>
    </clipPath>
  </defs>
  <g id="my_cup_Logo-2" data-name="my cup, Logo" clip-path="url(#clip-path)">
    <path id="패스_1" data-name="패스 1" d="M0,3.033a.76.76,0,0,0,.128-.228A3.5,3.5,0,0,1,3.012.054,3.361,3.361,0,0,1,6.443,1.561c.144.192.221.256.462.13A10.37,10.37,0,0,1,11.76.63,12.127,12.127,0,0,1,19.92,3.954a11.681,11.681,0,0,1,19.811,8c.027,4.052.056,8.106,0,12.158a3.267,3.267,0,0,1-3.326,3.35,3.247,3.247,0,0,1-3.554-3.122c-.15-3.826-.072-7.666-.058-11.5a5.5,5.5,0,0,0-.547-2.69,4.682,4.682,0,0,0-8.84,1.928c-.024,3.914.012,7.828.007,11.742a3.527,3.527,0,0,1-3.233,3.641,3.376,3.376,0,0,1-3.683-2.8,11.914,11.914,0,0,1-.117-2.008c0-3.242,0-6.485.027-9.727a5.458,5.458,0,0,0-1.432-4A4.688,4.688,0,0,0,7,12.545q0,3.474,0,6.948,0,2.189-.013,4.377a3.393,3.393,0,0,1-3.218,3.588,3.23,3.23,0,0,1-3.605-2.87L0,24.713V3.033" transform="translate(0 0)" fill="#0ad4b1"/>
    <path id="패스_2" data-name="패스 2" d="M164.712,142.653a8.476,8.476,0,0,1,2.654,0Z" transform="translate(-118.614 -102.653)" fill="#0ad4b1"/>
    <path id="패스_3" data-name="패스 3" d="M479.507,28c0,3.4.011,6.773-.01,10.167a5.009,5.009,0,0,1-.231,1.6,3.372,3.372,0,0,1-3.573,2.132,3.325,3.325,0,0,1-3.017-3.4c.008-1.2,0-2.409,0-3.613,0-9.518.026-19.037-.021-28.554A3.468,3.468,0,0,1,479.292,4.9c8.444-5.1,19.546-.229,20.865,9.666C501.8,26.021,489.353,33.861,479.507,28m0-11.648a7.083,7.083,0,0,0,7.126,7.23A7.172,7.172,0,1,0,486.3,9.242c-3.56.084-7.021,3.418-6.79,7.106" transform="translate(-340.375 -2.054)" fill="#0ad4b1"/>
    <path id="패스_4" data-name="패스 4" d="M161.768,22.19c2.342-5.613,4.686-11.16,7.02-16.768a3.838,3.838,0,0,1,1.987-2.177,3.648,3.648,0,0,1,4.664,5.1c-3.727,8.645-7.4,17.314-11.139,25.954-1.724,4.194-5.641,7.708-10.376,7.564a31.85,31.85,0,0,1-3.892-.227,4.633,4.633,0,0,1-3.011-1.365,3.281,3.281,0,0,1,.813-5,3.407,3.407,0,0,1,2.889-.228,6.362,6.362,0,0,0,3.138.207c1.943-.32,2.777-1.76,3.584-3.376a.711.711,0,0,0,0-.688q-1.939-4.454-3.862-8.914-3.12-7.213-6.239-14.426a3.528,3.528,0,0,1,1.334-4.281A4.132,4.132,0,0,1,154.814,5.5c2.291,5.583,4.582,11.142,6.954,16.693" transform="translate(-105.288 -2.078)" fill="#0ad4b1"/>
    <path id="패스_5" data-name="패스 5" d="M393.859,17.339c0,3.091.007,6.183-.006,9.274a10.494,10.494,0,0,1-.13,1.831,3.462,3.462,0,0,1-5.829,1.78.446.446,0,0,0-.622-.079c-8.725,4.85-18.989-2.094-18.634-11.856q-.019-5.47.008-10.942a7.21,7.21,0,0,1,.2-1.855,3.481,3.481,0,0,1,5.128-1.96,3.423,3.423,0,0,1,1.707,2.858c.131,4.223.023,8.453.053,12.678a5.54,5.54,0,0,0,8.118,4.941,5.285,5.285,0,0,0,2.873-4.816q0-6.27-.005-12.54a3.666,3.666,0,0,1,3.11-3.6,3.516,3.516,0,0,1,3.938,3.278c.135,3.667.021,7.34.057,11.01h.039" transform="translate(-265.46 -2.178)" fill="#0ad4b1"/>
    <path id="패스_6" data-name="패스 6" d="M289.1,31.365A14.75,14.75,0,0,1,274.6,18.8c-1.731-11.441,10.66-20.4,20.988-15.117a3.445,3.445,0,0,1-.612,6.45,3.543,3.543,0,0,1-2.506-.3,7.486,7.486,0,0,0-5.8-.376c-7.648,2.557-6.614,13.232.774,14.758a7.5,7.5,0,0,0,4.963-.567,3.567,3.567,0,0,1,2.738-.267,3.415,3.415,0,0,1,.992,6.045c-2.048,1.448-4.6,1.7-7.032,1.931" transform="translate(-197.63 -1.535)" fill="#0ad4b1"/>
  </g>
</svg>
